<svg xmlns="http://www.w3.org/2000/svg" width="98" height="38" viewBox="0 0 189.921 73.701">
	<path fill="#ED1C24" d="M63.71 30.306c2 0 3.72-1.22 4.45-2.955l4.21-9.912C65.123 17.96 44.314 8.248 33.74 0 23.14 8.255 7.545 14.485 3.758 16.525.943 18.04-.22 20.805.034 23.418l1.18 12.167c.566-1.65 1.87-2.938 3.626-3.732 13.065-5.912 18.58-7.543 28.9-13.673 10.213 6.133 24.532 12.126 29.97 12.126z"/>
	<path fill="#ED1C24" d="M66.396 34.273L64.97 48.917c-.433 4.246-2.873 7.898-6.356 9.996L33.74 73.8 8.87 58.915c-3.483-2.098-5.924-5.75-6.357-9.996l-.67-6.873c-.17-1.744.574-4.543 3.48-5.782l11.323-4.894.908 12.826c.132 1.98 1.244 3.696 2.854 4.663l13.334 7.978 13.333-7.98c1.613-.966 2.723-2.68 2.856-4.662l.907-12.827c7.753 2.948 12.44 3.923 15.56 2.903z"/>
	<path d="M188.523 57.378h-8.65c.738-.96.93-2.29.93-3.855V42.158h8.307v-4.876c0-.85-.69-1.538-1.54-1.538h-5.825V19.407h7.365v-4.875c0-.85-.69-1.54-1.54-1.54H141.5v4.875c0 .852.69 1.54 1.538 1.54h5.826v16.337H141.5v4.875c0 .85.69 1.538 1.538 1.538h6.768v12.53c0 1.485-1.203 2.69-2.69 2.69h-6.57v4.875c0 .85.69 1.54 1.542 1.54h47.977v-4.876c-.002-.85-.69-1.54-1.542-1.54zm-30.35-37.97h14.26v16.336h-14.26V19.407zm.015 37.97c.738-.96.93-2.29.93-3.855V42.158h12.375v12.53c0 1.485-1.207 2.69-2.69 2.69h-10.615z"/>
	<path d="M130.783 11.654h-7.555v10.928h-4.982v-9.39c0-.85-.688-1.538-1.537-1.538h-7.558v27.45c0 .85.69 1.538 1.54 1.538h7.554V28.996h4.982v10.108c0 .85.69 1.538 1.54 1.538h7.556v-27.45c0-.85-.69-1.538-1.54-1.538zM130.783 43.826H91.15v15.28c0 4.128 2.765 6.347 6.584 7.026 3.8.675 9.14 1.1 14 1.1 4.857 0 10.2-.425 13.998-1.1 3.818-.68 6.588-2.898 6.588-7.027V45.367c0-.85-.685-1.54-1.537-1.54zm-7.775 13.623c0 1.517-.63 2.09-1.918 2.375-1.824.403-5 .86-9.355.86s-7.533-.457-9.355-.86c-1.29-.284-1.918-.858-1.918-2.376V50.24h22.547v7.207zM102.264 40.052l4.416-5.132c.27-.315.477-.79.477-1.26 0-.585-.305-1.14-.697-1.458l-8.86-7.167c1.55-3.51 2.46-7.25 2.46-10.88 0-.85-.688-1.538-1.538-1.538h-7.915c0 5.22-.988 16.363-11.432 23.496l2.63 3.49c.527.7 1.513.807 2.34.395 3.78-1.887 7.333-5.145 10.116-9.082l8.004 9.136z"/>
</svg>